<svg width="23.006104" height="22.203125" viewBox="0 0 23.0061 22.2031" fill="none" xmlns="http://www.w3.org/2000/svg" xmlns:xlink="http://www.w3.org/1999/xlink">
	<desc>
			Created with Pixso.
	</desc>
	<defs/>
	<path id="Vector" d="M1.11 6.98C1.11 6.98 0.76 0.37 2.19 0.04C3.63 -0.29 6.11 2.08 6.11 2.08L1.11 6.98Z" fill="#000000" fill-opacity="1.000000" fill-rule="nonzero"/>
	<path id="Vector" d="M14.68 2.24C14.68 2.24 17.33 -0.4 19.21 0.04C21.08 0.48 19.65 5.7 19.65 5.7L14.68 2.24Z" fill="#000000" fill-opacity="1.000000" fill-rule="nonzero"/>
	<path id="Vector" d="M19.86 19.07C17.87 20.64 16.54 21.16 14.28 21.77C12.77 22.18 8.97 22.16 5.42 20.73C2.94 19.64 1.97 18.46 1.5 17.82C1.09 17.26 0.26 16.02 0.22 14.66C0.15 12.68 0.2 10.75 1.11 6.99C2.02 3.22 6.11 2.09 6.11 2.09C10.57 1.03 14.28 1.86 15.57 2.09C16.85 2.31 20.51 4.63 20.82 9.27C20.87 9.96 21.65 12.43 21.72 14.5C21.74 15.13 21.76 15.98 21.45 16.85C21.08 17.85 20.27 18.73 19.86 19.07Z" fill="#F07F2E" fill-opacity="1.000000" fill-rule="nonzero"/>
	<path id="Vector" d="M14.28 21.77C12.77 22.18 8.97 22.16 5.42 20.73C2.94 19.64 1.97 18.46 1.5 17.82C1.09 17.26 0.26 16.02 0.22 14.66C0.15 12.68 0.2 10.75 1.11 6.99C2.02 3.22 6.11 2.09 6.11 2.09C10.57 1.03 14.28 1.86 15.57 2.09C16.85 2.31 20.51 4.63 20.82 9.27C20.87 9.96 21.65 12.43 21.72 14.5C21.74 15.13 21.76 15.98 21.45 16.85C21.08 17.85 20.27 18.73 19.86 19.07C17.87 20.64 16.54 21.16 14.28 21.77Z" stroke="#000000" stroke-opacity="1.000000" stroke-width="0.400000"/>
	<path id="Vector" d="M7.56 9.71C7.59 9.65 7.62 9.59 7.66 9.54C7.68 9.51 7.7 9.48 7.72 9.46C7.73 9.44 7.74 9.43 7.75 9.41C7.78 9.38 7.69 9.48 7.75 9.42C7.8 9.36 7.86 9.29 7.92 9.23C7.95 9.2 7.98 9.17 8.01 9.14C8.03 9.13 8.09 9.08 8.04 9.12C7.99 9.16 8.06 9.11 8.08 9.1C8.11 9.07 8.15 9.05 8.19 9.03C8.21 9.01 8.23 9.01 8.26 8.99C8.3 8.97 8.18 9.02 8.26 8.99C8.31 8.98 8.35 8.97 8.4 8.96C8.45 8.94 8.32 8.96 8.38 8.96C8.41 8.96 8.44 8.96 8.46 8.96C8.49 8.96 8.51 8.96 8.54 8.96C8.58 8.96 8.46 8.94 8.51 8.96C8.52 8.96 8.53 8.96 8.54 8.97C8.56 8.97 8.59 8.98 8.62 8.99C8.63 8.99 8.64 9 8.65 9C8.72 9.02 8.61 8.97 8.64 9C8.7 9.04 8.77 9.06 8.82 9.1C8.84 9.11 8.85 9.12 8.86 9.13C8.8 9.09 8.86 9.13 8.87 9.14C8.9 9.17 8.93 9.2 8.96 9.23C9.12 9.38 9.22 9.52 9.34 9.71C9.44 9.87 9.65 9.93 9.82 9.84C9.98 9.74 10.04 9.52 9.94 9.36C9.57 8.76 9 8.15 8.22 8.29C7.75 8.37 7.39 8.74 7.12 9.1C7.06 9.18 7 9.27 6.95 9.36C6.86 9.53 6.91 9.74 7.08 9.84C7.23 9.93 7.47 9.88 7.56 9.71Z" fill="#000000" fill-opacity="1.000000" fill-rule="nonzero"/>
	<path id="Vector" d="M17.8 9.21C17.83 9.15 17.86 9.1 17.9 9.05C17.91 9.02 17.93 9 17.95 8.97C17.96 8.96 17.97 8.94 17.98 8.93C18.01 8.89 17.92 9 17.98 8.94C18.03 8.88 18.08 8.81 18.14 8.76C18.17 8.73 18.2 8.7 18.23 8.67C18.24 8.66 18.3 8.61 18.25 8.65C18.21 8.69 18.27 8.64 18.29 8.63C18.32 8.61 18.36 8.58 18.4 8.56C18.42 8.55 18.44 8.54 18.46 8.53C18.5 8.51 18.38 8.56 18.46 8.53C18.5 8.52 18.55 8.51 18.59 8.5C18.65 8.48 18.51 8.5 18.57 8.5C18.6 8.5 18.62 8.5 18.65 8.5C18.67 8.5 18.7 8.5 18.72 8.5C18.77 8.5 18.65 8.48 18.69 8.5C18.7 8.5 18.71 8.5 18.72 8.51C18.74 8.51 18.77 8.52 18.79 8.52C18.8 8.53 18.81 8.53 18.82 8.54C18.89 8.56 18.78 8.51 18.81 8.53C18.87 8.57 18.93 8.59 18.99 8.63C19 8.64 19.01 8.65 19.02 8.66C18.96 8.61 19.02 8.66 19.03 8.67C19.06 8.69 19.09 8.72 19.12 8.75C19.27 8.9 19.35 9.02 19.47 9.21C19.57 9.37 19.79 9.43 19.95 9.34C20.11 9.24 20.18 9.02 20.08 8.86C19.71 8.28 19.16 7.69 18.41 7.82C17.96 7.9 17.61 8.26 17.35 8.61C17.29 8.69 17.23 8.77 17.19 8.86C17.1 9.03 17.15 9.24 17.31 9.34C17.47 9.43 17.71 9.38 17.8 9.21Z" fill="#000000" fill-opacity="1.000000" fill-rule="nonzero"/>
	<path id="Vector" d="M6.19 12.62L9.82 12.73" stroke="#000000" stroke-opacity="1.000000" stroke-width="0.400000"/>
	<path id="Vector" d="M6.73 14.44L9.88 13.98" stroke="#000000" stroke-opacity="1.000000" stroke-width="0.400000"/>
	<path id="Vector" d="M19.37 12.2L22.99 12.08" stroke="#000000" stroke-opacity="1.000000" stroke-width="0.400000"/>
	<path id="Vector" d="M19.31 13.44L22.46 13.9" stroke="#000000" stroke-opacity="1.000000" stroke-width="0.400000"/>
	<path id="Vector" d="M14.18 13.6C14.18 13.6 15.94 16.02 17.42 13.55" stroke="#000000" stroke-opacity="1.000000" stroke-width="0.400000"/>
	<path id="Vector" d="M15.82 11.79L15.82 14.52" stroke="#000000" stroke-opacity="1.000000" stroke-width="0.400000"/>
	<path id="Vector" d="M17.11 10.98C17.11 11.5 16.52 11.91 15.78 11.91C15.05 11.91 14.45 11.5 14.45 10.98C14.45 10.47 15.05 10.05 15.78 10.05C16.52 10.05 17.11 10.47 17.11 10.98Z" fill="#000000" fill-opacity="1.000000" fill-rule="evenodd"/>
	<path id="Vector" d="M1.27 6.72C1.55 6.83 5.31 9.38 4.14 10.59C2.9 11.87 1.74 11.26 2.41 12.87C2.68 13.51 1.05 13.87 2.67 14.21C3.51 14.39 3.33 15.3 2.41 15.75C0.76 16.56 0.61 15.93 0.39 15.73C0.39 15.73 0.26 15.03 0.25 14.36C0.2 11.49 1.26 6.71 1.27 6.72Z" fill="#000000" fill-opacity="1.000000" fill-rule="evenodd"/>
	<path id="Vector" d="M4.14 10.59C2.9 11.87 1.74 11.26 2.41 12.87C2.68 13.51 1.05 13.87 2.67 14.21C3.51 14.39 3.33 15.3 2.41 15.75C0.76 16.56 0.61 15.93 0.39 15.73C0.39 15.73 0.26 15.03 0.25 14.36C0.2 11.49 1.26 6.71 1.27 6.72C1.55 6.83 5.31 9.38 4.14 10.59Z" stroke="#000000" stroke-opacity="1.000000" stroke-width="0.400000"/>
	<path id="Vector" d="M21.63 14.31C21.63 14.31 20.28 13.91 20.15 15.34C20.01 16.77 20.08 17.31 19.46 17.52C18.85 17.72 19.11 19.31 19.38 19.31C20.51 18.69 22.07 16.92 21.63 14.31Z" fill="#000000" fill-opacity="1.000000" fill-rule="evenodd"/>
	<path id="Vector" d="M20.15 15.34C20.01 16.77 20.08 17.31 19.46 17.52C18.85 17.72 19.11 19.31 19.38 19.31C20.51 18.69 22.07 16.92 21.63 14.31C21.63 14.31 20.28 13.91 20.15 15.34Z" stroke="#000000" stroke-opacity="1.000000" stroke-width="0.400000"/>
</svg>
